PathFileType	4	(X/Y/Z)	C:/Users/beibeiliu/ov580/test_trc/User1\sequence.24_training_dense_left.trc
DataRate	CameraRate	NumFrames	NumMarkers	Units	OrigDataRate	OrigDataStartFrame	OrigNumFrames
120	120	14	19	mm	120	1	177
Frame#	Time	ThumbCMC			ThumbMCP			ThumbIP			ThumbTip			IndexMCP			IndexPIP			IndexTip			MiddleMCP			MiddlePIP			MiddleTip			RingMCP			RingPIP			RingTip			PinkyMCP			PinkyPIP			PinkyTip			BackHand1			BackHand2			BackHand3	
		X0	Y0	Z0	X1	Y1	Z1	X2	Y2	Z2	X3	Y3	Z3	X4	Y4	Z4	X5	Y5	Z5	X6	Y6	Z6	X7	Y7	Z7	X8	Y8	Z8	X9	Y9	Z9	X10	Y10	Z10	X11	Y11	Z11	X12	Y12	Z12	X13	Y13	Z13	X14	Y14	Z14	X15	Y15	Z15	X16	Y16	Z16	X17	Y17	Z17	X18	Y18	Z18	
0	0	-142.148	30.7339	68.5165	-119.787	15.0152	63.1359	-94.4695	7.45951	54.1122	-73.3222	0.3493	49.5678	-144.379	22.722	-18.4761	-137.081	20.6716	-41.9428	-132.017	23.2371	-71.7088	-168.427	28.4471	-33.3809	-166.132	26.5728	-61.0181	-166.243	23.9851	-90.9035	-192.457	26.6115	-32.2843	-192.759	26.0152	-54.9601	-194.315	22.4925	-80.3916	-227.27	19.5007	-14.0929	-233.551	16.7771	-28.3977	-238.425	21.0105	-53.2525	-197.536	43.9972	18.2914	-204.628	57.2152	54.0205	-167.334	47.8327	40.2435	
1	0.00833333	-143.433	30.7586	65.0207	-119.209	16.5092	61.0096	-98.8866	6.9613	50.0267	-74.5204	0.885923	48.8857	-144.992	24.6036	-21.0213	-138.175	23.8333	-47.1899	-134.19	24.9334	-74.1475	-168.283	30.2371	-36.8241	-166.535	28.5249	-59.4518	-167.833	26.2898	-92.0704	-197.759	29.9165	-31.7781	-192.959	27.235	-56.4328	-194.742	24.6749	-86.6277	-224.729	21.7058	-11.4843	-236.961	18.7829	-33.4448	-242.179	24.4195	-51.3262	-200.912	45.9116	20.6413	-203.209	59.3646	50.3841	-166.681	48.1083	37.9112	
2	0.0166667	-144.254	31.1247	66.7652	-122.145	16.8179	62.2507	-94.1249	7.3059	49.8828	-78.7336	1.42689	50.1184	-139.315	24.3266	-23.2511	-138.689	23.9594	-45.2484	-131.108	24.4417	-69.5417	-171.11	31.7005	-33.8301	-167.221	28.8466	-60.7732	-165.607	26.7856	-89.9662	-193.03	30.0036	-29.284	-193.642	27.4065	-61.0418	-196.543	24.6752	-85.8192	-226.616	23.1757	-12.5322	-236.848	19.1662	-30.9613	-241.955	22.3263	-52.0173	-201.195	47.0518	19.7476	-202.807	58.0817	50.5021	-168.715	49.1539	40.2619	
3	0.025	-139.703	31.2254	63.4532	-121.091	16.5315	59.611	-96.6601	8.08776	50.8229	-78.9053	2.49319	52.3612	-142.063	25.1127	-22.932	-133.57	25.0496	-47.3059	-136.316	24.8492	-69.7817	-169.099	31.6919	-32.2003	-167.732	29.427	-62.7922	-168.886	27.6542	-90.8001	-192.573	30.5819	-31.8486	-194.76	28.5621	-59.5799	-194.785	25.3909	-80.5647	-222.027	23.1281	-12.0614	-232.598	20.6851	-31.8694	-242.101	25.5281	-51.2997	-198.978	46.0263	17.4913	-205.915	59.831	48.5003	-166.399	49.4529	37.6186	
4	0.0333333	-145.097	32.0837	65.7541	-119.195	16.8841	59.097	-95.4864	9.74665	53.9642	-75.8274	3.83596	53.3804	-139.982	25.7204	-18.8264	-136.143	25.3537	-42.4523	-131.554	25.7125	-67.8112	-166.404	32.6569	-37.4645	-165.112	29.0378	-64.5586	-166.661	28.5024	-88.6757	-197.584	30.6482	-31.1503	-193.566	28.9999	-60.7135	-196.916	25.6129	-84.9552	-228.165	23.2681	-12.7692	-231.48	20.2571	-30.6706	-242.79	25.6918	-51.3094	-199.516	48.3306	17.7182	-200.008	59.8809	48.2415	-167.336	49.0509	37.6868	
5	0.0416667	-143.218	32.3729	61.8597	-120.451	18.3897	59.1453	-95.1918	9.62392	49.5774	-74.9062	4.66974	53.1056	-139.536	26.2359	-17.8162	-137.999	26.2463	-47.3862	-132.176	26.2066	-68.3518	-170.782	33.1849	-37.0072	-166.128	30.9155	-62.0432	-169.806	29.9118	-90.3514	-198.228	31.964	-31.5449	-196.996	30.2638	-60.8176	-198.846	27.1655	-82.1655	-226.095	25.165	-13.4751	-231.684	21.3641	-28.8507	-243.958	24.312	-50.3929	-196.887	49.4207	21.4022	-202.846	61.0592	49.5273	-164.416	49.9697	39.3474	
6	0.05	-140.806	32.9026	62.9467	-117.834	18.4099	60.144	-98.6802	8.41027	53.1812	-77.4856	3.19457	52.2159	-142.128	26.5672	-23.8737	-135.238	24.691	-42.794	-133.99	26.2347	-69.1376	-171.349	33.6966	-37.7817	-165.943	30.9506	-59.889	-167.198	31.2101	-91.9915	-193.542	32.2152	-29.3551	-195.977	30.5331	-57.9979	-195.058	28.5524	-85.861	-228.417	25.6826	-13.0398	-236.597	21.8658	-33.1193	-244.791	25.7913	-52.0829	-195.991	47.9344	22.224	-204.126	62.297	50.8105	-167.121	52.6023	39.6065	
7	0.0583333	-143.173	34.336	67.5146	-120.889	18.5221	61.8317	-94.3778	10.4326	50.8465	-75.9825	4.17193	52.202	-141.226	27.9641	-22.7237	-133.862	25.5093	-47.3858	-135.143	27.5035	-69.302	-169.569	34.1191	-37.5489	-166.999	30.992	-61.1081	-163.854	29.0828	-94.8083	-193.315	33.2633	-31.0266	-198.393	30.8921	-58.8593	-198.011	27.2986	-82.7488	-228.765	26.8605	-16.111	-233.894	22.8531	-30.7436	-244.906	25.197	-55.8605	-201.427	50.2406	21.4744	-204.23	61.9869	49.7038	-164.37	53.3677	39.9021	
8	0.0666667	-145.206	35.6649	64.7758	-122.291	21.9071	54.5195	-101.826	15.436	41.5231	-78.3075	10.9527	36.646	-142.481	36.0555	-21.3227	-136.595	34.6714	-49.1268	-131.552	35.7408	-73.8549	-169.52	38.0016	-35.4133	-168.87	32.0688	-65.5206	-165.759	27.3531	-92.8455	-194.876	34.4312	-34.371	-196.14	29.5281	-59.6631	-191.742	22.7389	-86.0819	-226.643	26.8549	-13.804	-230.462	21.6438	-32.186	-240.185	22.5712	-56.8848	-201.244	50.9331	20.7691	-209.616	61.3442	53.5941	-170.094	55.5149	41.9975	
9	0.075	-151.698	52.7124	61.6685	-122.532	45.8516	44.7459	-105.167	44.9219	27.1371	-90.2387	41.0712	14.0526	-148.519	63.6705	-25.3134	-147.82	63.0132	-48.9388	-145.004	63.6408	-76.6842	-170.365	49.497	-41.1578	-163.776	40.3142	-65.0693	-159.768	28.4638	-91.2626	-190.113	36.7602	-38.7269	-191.088	25.5351	-60.1059	-182.156	13.6501	-82.8934	-217.161	25.0864	-18.1471	-221.144	14.6514	-39.0554	-223.512	12.7763	-61.4968	-211.401	54.8186	19.0508	-218.093	60.7227	48.8209	-179.848	70.0324	41.6521	
10	0.0833333	-153.542	60.744	57.0945	-129.7	54.6451	37.1323	-114.607	55.5497	13.5287	-97.9275	55.6763	-2.72291	-156.077	71.5808	-29.6306	-150.335	72.5685	-51.8637	-150.738	72.3611	-80.987	-172.125	50.3732	-44.4317	-162.359	39.7316	-63.747	-156.363	23.1419	-88.8044	-192.942	30.62	-38.3553	-182.338	18.1504	-58.6454	-167.854	3.06125	-78.1872	-213.042	22.1299	-21.4024	-212.065	11.637	-41.9306	-209.886	6.1914	-64.2639	-214.994	53.2614	17.5377	-221.017	56.2224	46.7821	-188.769	73.6936	38.6253	
11	0.0916667	-158.21	58.5618	57.7969	-130.297	57.8619	35.3309	-118.935	59.7486	9.50921	-109.589	57.2524	-10.2257	-157.064	74.7628	-31.1583	-152.299	74.5826	-54.8084	-153.603	73.7404	-77.4013	-172.305	50.8109	-41.8661	-160.76	36.443	-64.2914	-147.875	19.4083	-88.1794	-189.488	29.5188	-36.221	-172.866	14.6086	-53.8156	-159.723	-5.11088	-66.3717	-207.719	20.3191	-27.8296	-204.098	11.3854	-41.2154	-199.605	1.02297	-66.8052	-216.54	53.4293	14.5213	-225.414	53.5658	47.5307	-187.916	73.8703	37.2418	
12	0.1	-160.119	62.0623	53.0896	-137.384	57.1045	30.6011	-122.601	60.8106	5.14562	-112.251	60.3841	-15.4643	-158.217	77.6371	-32.9981	-153.106	77.7035	-54.1652	-155.085	75.9882	-76.6878	-168.729	51.8509	-42.9958	-156.465	35.8815	-63.4391	-145.342	19.5372	-82.0742	-187.101	27.5258	-37.1827	-163.968	10.928	-50.9634	-148.195	-10.4039	-54.6942	-208.938	19.2697	-25.0342	-199.957	10.1574	-41.8836	-184.976	0.119776	-66.3913	-212.287	54.6327	13.2022	-223.993	54.0335	49.4459	-191.742	73.7935	38.5726	
13	0.108333	-159.131	61.5923	56.5005	-135.363	60.6924	28.3131	-127.045	63.0479	0.638089	-118.958	59.5412	-22.1264	-163.896	77.3161	-30.0509	-158.455	77.8116	-51.7519	-158.773	77.7028	-80.7662	-169.037	51.3845	-44.4492	-153.484	37.7043	-61.3253	-139.999	20.6933	-78.2513	-181.444	28.5819	-36.9302	-162.734	10.417	-44.8221	-141.73	-10.0586	-40.5538	-203.021	21.1782	-29.4995	-190.568	6.19664	-45.0667	-169.887	-1.94584	-58.6437	-213.541	54.1675	12.5515	-225.146	55.2377	46.4462	-195.025	76.5632	40.3606	
